{
  "accessors": [
    {
      "bufferView": 2,
      "componentType": 5126,
      "count": 5226,
      "max": [
        9.559940338134766,
        7.4154558181762695,
        23.259521484375
      ],
      "min": [
        -7.304316997528076,
        -8.82275104522705,
        0.008822999894618988
      ],
      "type": "VEC3"
    },
    {
      "bufferView": 2,
      "byteOffset": 62712,
      "componentType": 5126,
      "count": 5226,
      "max": [
        0.9992281198501587,
        0.9999405145645142,
        0.9989036917686462
      ],
      "min": [
        -0.9995198845863342,
        -0.9997147917747498,
        -0.9998634457588196
      ],
      "type": "VEC3"
    },
    {
      "bufferView": 3,
      "componentType": 5126,
      "count": 5226,
      "max": [
        0.9999442100524902,
        0.9994443655014038,
        0.9839498996734619,
        1.0
      ],
      "min": [
        -0.9999034404754639,
        -0.9941943883895874,
        -0.9999358654022217,
        -1.0
      ],
      "type": "VEC4"
    },
    {
      "bufferView": 1,
      "componentType": 5126,
      "count": 5226,
      "max": [
        0.9857879877090454,
        0.9884499907493591
      ],
      "min": [
        0.0,
        0.0
      ],
      "type": "VEC2"
    },
    {
      "bufferView": 0,
      "componentType": 5125,
      "count": 30366,
      "type": "SCALAR"
    }
  ],
  "asset": {
    "extras": {
      "author": "FiL0S0V (https://sketchfab.com/fil0s0v)",
      "license": "CC-BY-4.0 (http://creativecommons.org/licenses/by/4.0/)",
      "source": "https://sketchfab.com/3d-models/helios-vaporwave-bust-f7a0fdfc6bef44b497e33257658764c8",
      "title": "Helios Vaporwave Bust"
    },
    "generator": "Sketchfab-12.68.0",
    "version": "2.0"
  },
  "bufferViews": [
    {
      "buffer": 0,
      "byteLength": 121464,
      "name": "floatBufferViews",
      "target": 34963
    },
    {
      "buffer": 0,
      "byteLength": 41808,
      "byteOffset": 121464,
      "byteStride": 8,
      "name": "floatBufferViews",
      "target": 34962
    },
    {
      "buffer": 0,
      "byteLength": 125424,
      "byteOffset": 163272,
      "byteStride": 12,
      "name": "floatBufferViews",
      "target": 34962
    },
    {
      "buffer": 0,
      "byteLength": 83616,
      "byteOffset": 288696,
      "byteStride": 16,
      "name": "floatBufferViews",
      "target": 34962
    }
  ],
  "buffers": [
    {
      "byteLength": 372312,
      "uri": "scene.bin"
    }
  ],
  "images": [
    {
      "uri": "textures/helios_baseColor.png"
    },
    {
      "uri": "textures/helios_normal.png"
    }
  ],
  "materials": [
    {
      "doubleSided": true,
      "name": "helios",
      "normalTexture": {
        "index": 1
      },
      "pbrMetallicRoughness": {
        "baseColorTexture": {
          "index": 0
        },
        "metallicFactor": 0.0
      }
    }
  ],
  "meshes": [
    {
      "name": "Object_0",
      "primitives": [
        {
          "attributes": {
            "NORMAL": 1,
            "POSITION": 0,
            "TANGENT": 2,
            "TEXCOORD_0": 3
          },
          "indices": 4,
          "material": 0,
          "mode": 4
        }
      ]
    }
  ],
  "nodes": [
    {
      "children": [
        1
      ],
      "matrix": [
        1.0,
        0.0,
        0.0,
        0.0,
        0.0,
        2.220446049250313e-16,
        -1.0,
        0.0,
        0.0,
        1.0,
        2.220446049250313e-16,
        0.0,
        0.0,
        0.0,
        0.0,
        1.0
      ],
      "name": "Sketchfab_model"
    },
    {
      "children": [
        2
      ],
      "name": "heliosbust.obj.cleaner.materialmerger.gles"
    },
    {
      "mesh": 0,
      "name": "Object_2"
    }
  ],
  "samplers": [
    {
      "magFilter": 9729,
      "minFilter": 9987,
      "wrapS": 10497,
      "wrapT": 10497
    }
  ],
  "scene": 0,
  "scenes": [
    {
      "name": "Sketchfab_Scene",
      "nodes": [
        0
      ]
    }
  ],
  "textures": [
    {
      "sampler": 0,
      "source": 0
    },
    {
      "sampler": 0,
      "source": 1
    }
  ]
}
